<?xml version="1.0"?>
<svg xmlns="http://www.w3.org/2000/svg" viewBox="0 0 64 64" width="512" height="512"><g id="service"><path d="M55,24H45a4.99,4.99,0,0,0-4.96,4.6L34,36.15V36a9.007,9.007,0,0,0-7.75-8.97l-2.71-.9L23,25.59V22.74A7.007,7.007,0,0,0,25.92,18H27a2.006,2.006,0,0,0,2-2V15a2.006,2.006,0,0,0-2-2H26v-.28A6.981,6.981,0,0,0,29,7V3a1,1,0,0,0-1-1H16A7.008,7.008,0,0,0,9,9v2a3.021,3.021,0,0,0,1.04,2.26A1.984,1.984,0,0,0,9,15v1a2.006,2.006,0,0,0,2,2h1.08A7.007,7.007,0,0,0,15,22.74v2.85l-.54.54-2.71.9A9.007,9.007,0,0,0,4,36V61a1,1,0,0,0,1,1H31a3.009,3.009,0,0,0,3-3V50.3L47.54,30H51a5,5,0,0,0,5-5A1,1,0,0,0,55,24ZM27,15v1H26V15ZM12,16H11V15h1Zm.55-5.89A.988.988,0,0,0,12,11v1a1,1,0,0,1-1-1V9a5,5,0,0,1,5-5H27V7a4.971,4.971,0,0,1-1.28,3.32,1.072,1.072,0,0,0-.48-.29l-8-2a.978.978,0,0,0-.69.08ZM14,17V11.62l3.12-1.56L24,11.78V17a5,5,0,0,1-10,0Zm7.29,9.71.3.29L19,29.59,16.41,27l.3-.29A1.033,1.033,0,0,0,17,26V23.71a7.042,7.042,0,0,0,4,0V26A1.033,1.033,0,0,0,21.29,26.71Zm-6.56,1.43,3.56,3.57a1.008,1.008,0,0,0,1.42,0l3.56-3.57,1.13.38L20.49,34H17.51L13.6,28.52ZM20.82,40l1.11,6.66L19,49.59l-2.93-2.93L17.18,40Zm-3.31-2,.34-2h2.3l.34,2ZM10,60H6V48h4ZM32.17,49.45A.967.967,0,0,0,32,50v9a1,1,0,0,1-1,1H12V47a1,1,0,0,0-1-1H6V36a7.015,7.015,0,0,1,5.55-6.91l4.4,6.15-1.94,11.6a1.011,1.011,0,0,0,.28.87l4,4a1.014,1.014,0,0,0,1.42,0l4-4a1.011,1.011,0,0,0,.28-.87l-1.94-11.6,4.4-6.15A7.015,7.015,0,0,1,32,36v3a1,1,0,0,0,.67.94.988.988,0,0,0,1.11-.32L41.48,30h3.65ZM51,28H42.17A3.014,3.014,0,0,1,45,26h8.83A3.014,3.014,0,0,1,51,28Z"/><path d="M59,16.18V16a10.023,10.023,0,0,0-7-9.54V5a3,3,0,0,0-3-3,3.009,3.009,0,0,0-3,3V6.46A10.023,10.023,0,0,0,39,16v.18A3,3,0,0,0,40,22H58a3,3,0,0,0,1-5.82ZM48,5a1,1,0,0,1,1-1,.949.949,0,0,1,.71.31A.928.928,0,0,1,50,5V6.05c-.33-.03-.66-.05-1-.05s-.67.02-1,.05Zm1,3a8.011,8.011,0,0,1,8,8H44a5,5,0,0,1,5-5V9a7.008,7.008,0,0,0-7,7H41A8.011,8.011,0,0,1,49,8Zm9,12H40a1,1,0,0,1,0-2H58a1,1,0,0,1,0,2Z"/><rect x="16" y="13" width="2" height="2"/><rect x="20" y="13" width="2" height="2"/></g></svg>
